<svg width="102" height="132" viewBox="0 0 102 132" fill="none" xmlns="http://www.w3.org/2000/svg">
<path fill-rule="evenodd" clip-rule="evenodd" d="M72.2779 6.60671C72.2779 -0.363745 62.9776 -2.72947 59.6469 3.39375L36.1272 46.6334C33.8931 50.7406 36.8663 55.7424 41.5418 55.7424H63.8087V77.3049C63.8087 84.2563 73.0686 86.6379 76.4225 80.5492L99.8193 38.0749C102.288 33.5935 99.0459 28.1065 93.9296 28.1065H72.2779V6.60671Z" fill="#EB9FEF"/>
<path fill-rule="evenodd" clip-rule="evenodd" d="M57.5602 12.3997C57.5602 1.67785 43.2562 -1.96338 38.1297 7.45342L2.07326 73.6849C-1.36674 80.0038 3.20726 87.7017 10.4018 87.7017H44.5557V120.702C44.5557 131.394 58.7975 135.06 63.9598 125.696L99.8251 60.6418C103.626 53.7473 98.6387 45.3025 90.7658 45.3025H57.5602V12.3997Z" fill="#5856D6"/>
<mask id="mask0_1_1401" style="mask-type:luminance" maskUnits="userSpaceOnUse" x="0" y="2" width="102" height="130">
<path fill-rule="evenodd" clip-rule="evenodd" d="M57.5602 12.3997C57.5602 1.67785 43.2562 -1.96338 38.1297 7.45342L2.07326 73.6849C-1.36674 80.0038 3.20726 87.7017 10.4018 87.7017H44.5557V120.702C44.5557 131.394 58.7975 135.06 63.9598 125.696L99.8251 60.6418C103.626 53.7473 98.6387 45.3025 90.7658 45.3025H57.5602V12.3997Z" fill="white"/>
</mask>
<g mask="url(#mask0_1_1401)">
<path fill-rule="evenodd" clip-rule="evenodd" d="M72.2779 6.60671C72.2779 -0.363745 62.9776 -2.72947 59.6469 3.39375L36.1272 46.6334C33.8931 50.7406 36.8663 55.7424 41.5418 55.7424H63.8087V77.3049C63.8087 84.2563 73.0686 86.6379 76.4225 80.5492L99.8193 38.0749C102.288 33.5935 99.0459 28.1065 93.9296 28.1065H72.2779V6.60671Z" fill="#4400C6"/>
</g>
</svg>
